#!OML:ASF X:\für Bonn\!DataBase\2005_08_12_Daniel\c3d\Daniel.ASF
:FULLY-SPECIFIED
:DEGREES
61
root 29.6115 16.6589 1.42157 -27.8038 82.3522 -394.876
lowerback 18.3558 0.160483 5.21254
upperback 0.866916 1.23397 -1.42012
thorax -9.2351 0.362704 -4.8497
lowerneck 1.2366 2.12968 -4.85382
upperneck 2.68263 2.88532 -1.74706
head 0.571387 1.4044 0.262983
rclavicle -1.63003e-014 1.59028e-015
rhumerus -25.6036 9.53342 -101.241
rradius 53.5587
rwrist 1.13554
rhand -28.0998 22.2009
rfingers 7.12502
rthumb -1.48234 -7.77369
lclavicle -1.63003e-014 1.59028e-015
lhumerus -33.963 -1.1823 90.5096
lradius 73.4092
lwrist 30.2872
lhand -3.17897 -6.21775
lfingers 7.12502
lthumb 22.5422 22.4863
rfemur -18.3027 5.1841 25.5823
rtibia 50.4654
rfoot -26.5537 3.60741
rtoes -7.23639
lfemur -22.5877 -6.78645 -15.1266
ltibia 61.1851
lfoot -33.8119 7.00449
ltoes -14.2593
62
root 29.787 16.8378 1.43615 -25.1214 82.2195 -391.852
lowerback 17.4418 0.254712 5.04749
upperback 0.529109 1.25266 -1.60013
thorax -9.09373 0.366382 -4.93492
lowerneck 0.859227 2.19372 -4.76202
upperneck 4.26775 3.06047 -1.76231
head 1.12445 1.45906 0.265173
rclavicle 1.98785e-015 7.95139e-015
rhumerus -24.3615 12.2506 -101.611
rradius 57.4091
rwrist 3.85237
rhand -28.5287 21.8297
rfingers 7.12502
rthumb -1.89654 -8.14157
lclavicle 1.98785e-015 7.95139e-015
lhumerus -32.6222 -4.36265 90.4802
lradius 77.6973
lwrist 29.3381
lhand -3.40657 -6.32553
lfingers 7.12502
lthumb 22.3237 22.4049
rfemur -16.3615 5.09792 25.2054
rtibia 48.1478
rfoot -23.8674 3.61675
rtoes -6.6239
lfemur -20.6977 -6.57263 -15.5976
ltibia 59.1459
lfoot -31.347 7.09298
ltoes -14.5553
63
root 29.967 17.0304 1.4545 -22.758 82.0769 -389.116
lowerback 16.5102 0.331907 4.87012
upperback 0.210982 1.25237 -1.77415
thorax -8.91963 0.364446 -4.99995
lowerneck 0.516074 2.26422 -4.66704
upperneck 5.93709 3.25389 -1.7877
head 1.71316 1.5239 0.265982
rclavicle -2.14687e-014 7.95139e-016
rhumerus -23.0786 14.808 -101.764
rradius 61.12
rwrist 5.88632
rhand -28.785 21.5643
rfingers 7.12502
rthumb -2.14409 -8.40469
lclavicle -2.14687e-014 7.95139e-016
lhumerus -31.53 -7.39778 90.1062
lradius 82.0264
lwrist 28.2494
lhand -3.5829 -6.50021
lfingers 7.12502
lthumb 22.1544 22.2504
rfemur -14.4158 5.02873 24.8741
rtibia 45.82
rfoot -20.655 3.38436
rtoes -6.09091
lfemur -18.9364 -6.2423 -16.0093
ltibia 57.2269
lfoot -28.4763 7.05183
ltoes -14.6839
64
root 30.1514 17.2318 1.47574 -20.25 81.8982 -386.229
lowerback 15.5443 0.426188 4.64309
upperback -0.0813861 1.26974 -1.95911
thorax -8.69292 0.376469 -5.04992
lowerneck 0.196767 2.34632 -4.64994
upperneck 7.60256 3.46506 -1.7256
head 2.31026 1.60025 0.308695
rclavicle 1.98785e-016 1.59028e-015
rhumerus -21.6565 17.2181 -101.652
rradius 64.6959
rwrist 6.86163
rhand -28.82 21.6436
rfingers 7.12502
rthumb -2.17791 -8.32504
lclavicle 1.98785e-016 1.59028e-015
lhumerus -30.606 -10.1822 89.4766
lradius 86.3797
lwrist 27.0771
lhand -3.70465 -6.75972
lfingers 7.12502
lthumb 22.0376 22.0047
rfemur -12.5414 5.05658 24.546
rtibia 43.5315
rfoot -17.0641 2.86699
rtoes -5.67662
lfemur -17.3357 -5.70345 -16.396
ltibia 55.4582
lfoot -25.1434 6.9002
ltoes -14.901
65
root 30.3487 17.4434 1.49821 -18.1201 81.7236 -383.707
lowerback 14.5255 0.484222 4.428
upperback -0.357114 1.2484 -2.11895
thorax -8.41975 0.372624 -5.06789
lowerneck 0.012192 2.45251 -4.59186
upperneck 9.18192 3.71178 -1.75465
head 2.87243 1.69849 0.315295
rclavicle 2.56432e-014 -9.54166e-015
rhumerus -20.3243 19.5368 -101.353
rradius 68.2847
rwrist 6.85153
rhand -28.7847 22.2203
rfingers 7.12502
rthumb -2.1438 -7.74869
lclavicle 2.56432e-014 -9.54166e-015
lhumerus -29.7506 -12.6807 88.6255
lradius 90.5684
lwrist 25.9505
lhand -3.84107 -7.14259
lfingers 7.12502
lthumb 21.9066 21.6372
rfemur -10.6976 5.14789 24.2773
rtibia 41.3352
rfoot -13.2805 2.05127
rtoes -5.74375
lfemur -15.8913 -4.91586 -16.6826
ltibia 53.8602
lfoot -21.3466 6.46998
ltoes -15.2272
66
root 30.5622 17.6663 1.52083 -16.1607 81.543 -381.335
lowerback 13.4677 0.548547 4.26024
upperback -0.608312 1.24891 -2.28063
thorax -8.09133 0.380291 -5.11733
lowerneck -0.0678116 2.54294 -4.65029
upperneck 10.6825 3.93431 -1.70776
head 3.4 1.78749 0.364807
rclavicle 1.92821e-014 1.43125e-014
rhumerus -19.2395 21.4839 -100.899
rradius 72.2044
rwrist 5.95993
rhand -28.538 22.9993
rfingers 7.12502
rthumb -1.90548 -6.97195
lclavicle 1.92821e-014 1.43125e-014
lhumerus -28.8644 -15.0158 87.6139
lradius 94.5513
lwrist 25.0684
lhand -4.0645 -7.68462
lfingers 7.12502
lthumb 21.692 21.1201
rfemur -8.98388 5.37337 24.0601
rtibia 39.3264
rfoot -9.32549 0.850265
rtoes -6.06517
lfemur -14.5562 -4.05105 -16.9169
ltibia 52.4491
lfoot -17.1211 5.92007
ltoes -15.3673
67
root 30.7829 17.8938 1.5434 -14.5385 81.314 -379.282
lowerback 12.443 0.634832 4.1769
upperback -0.825296 1.29834 -2.45655
thorax -7.73459 0.410213 -5.23924
lowerneck -0.0679942 2.62323 -4.69294
upperneck 12.0322 4.13198 -1.61704
head 3.87162 1.87083 0.424289
rclavicle -1.39149e-015 1.82882e-014
rhumerus -18.1573 23.1218 -100.312
rradius 75.9978
rwrist 4.46433
rhand -28.3034 23.883
rfingers 7.12502
rthumb -1.67896 -6.09015
lclavicle -1.39149e-015 1.82882e-014
lhumerus -27.7248 -17.2255 86.3508
lradius 98.263
lwrist 24.6275
lhand -4.23575 -8.37692
lfingers 7.12502
lthumb 21.5276 20.4467
rfemur -7.47807 5.80699 23.962
rtibia 37.6062
rfoot -5.25467 -0.748614
rtoes -7.02031
lfemur -13.4004 -3.06778 -17.0652
ltibia 51.2997
lfoot -12.5225 5.19868
ltoes -15.8279
68
root 30.9968 18.1133 1.56472 -13.099 81.0719 -377.392
lowerback 11.6101 0.713205 4.07211
upperback -1.07947 1.34833 -2.58555
thorax -7.52671 0.436974 -5.30466
lowerneck -0.00958378 2.70652 -4.78467
upperneck 13.2946 4.33589 -1.54334
head 4.31078 1.958 0.486843
rclavicle 1.91827e-014 1.66979e-014
rhumerus -17.015 24.7977 -99.4753
rradius 79.4004
rwrist 2.34641
rhand -28.2695 24.7675
rfingers 7.12502
rthumb -1.64621 -5.2059
lclavicle 1.91827e-014 1.66979e-014
lhumerus -26.4601 -19.2371 84.8946
lradius 101.816
lwrist 24.7365
lhand -4.4951 -9.16451
lfingers 7.12502
lthumb 21.2785 19.6874
rfemur -6.19679 6.46037 23.9519
rtibia 36.281
rfoot -1.32832 -2.58051
rtoes -8.31171
lfemur -12.4779 -1.99124 -17.1405
ltibia 50.4755
lfoot -7.84058 4.23133
ltoes -15.0666
69
root 31.1943 18.3221 1.5836 -11.999 80.8346 -375.803
lowerback 10.9867 0.786373 4.01174
upperback -1.28946 1.40816 -2.71182
thorax -7.3876 0.466053 -5.39956
lowerneck 0.09645 2.77363 -4.90482
upperneck 14.3089 4.49517 -1.41158
head 4.65645 2.02846 0.569867
rclavicle -5.86415e-015 1.43125e-014
rhumerus -15.5684 26.3178 -98.3866
rradius 82.4435
rwrist -0.0365144
rhand -28.2839 25.3489
rfingers 7.12502
rthumb -1.66006 -4.62439
lclavicle -5.86415e-015 1.43125e-014
lhumerus -24.799 -21.0397 83.1901
lradius 105.135
lwrist 25.306
lhand -4.77696 -10.0875
lfingers 7.12502
lthumb 21.0077 18.7947
rfemur -5.13309 7.20378 24.0361
rtibia 35.3965
rfoot 2.44452 -4.45314
rtoes -9.24547
lfemur -11.8118 -1.19369 -17.2196
ltibia 50.008
lfoot -3.1957 3.28941
ltoes -14.5982
70
root 31.3809 18.5264 1.59987 -11.0681 80.5647 -374.39
lowerback 10.498 0.873691 3.96949
upperback -1.48763 1.49696 -2.81406
thorax -7.30857 0.507625 -5.48741
lowerneck 0.324092 2.8399 -5.10173
upperneck 15.0915 4.6315 -1.25136
head 4.89455 2.09009 0.670539
rclavicle 8.05078e-015 3.49861e-014
rhumerus -13.8915 27.6796 -96.9405
rradius 85.257
rwrist -2.40853
rhand -28.3798 25.4755
rfingers 7.12502
rthumb -1.75276 -4.49704
lclavicle 8.05078e-015 3.49861e-014
lhumerus -22.8271 -22.5592 81.3183
lradius 108.251
lwrist 26.388
lhand -5.01028 -11.1259
lfingers 7.12502
lthumb 20.7835 17.781
rfemur -4.32303 7.93109 24.1596
rtibia 34.9242
rfoot 5.97143 -6.12125
rtoes -9.71728
lfemur -11.3909 -0.400892 -17.2581
ltibia 49.857
lfoot 1.3824 2.1868
ltoes -14.1705
71
root 31.5659 18.7226 1.61343 -10.3817 80.3183 -373.178
lowerback 10.0608 0.957438 3.95741
upperback -1.6165 1.58969 -2.88328
thorax -7.18357 0.553816 -5.55637
lowerneck 0.682102 2.90448 -5.44408
upperneck 15.6233 4.73758 -1.0355
head 5.01033 2.13653 0.808306
rclavicle -2.88238e-015 2.22639e-014
rhumerus -11.96 28.8075 -95.2219
rradius 87.8794
rwrist -4.66096
rhand -28.5398 25.3771
rfingers 7.12502
rthumb -1.90726 -4.59414
lclavicle -2.88238e-015 2.22639e-014
lhumerus -20.506 -23.8467 79.2068
lradius 111.067
lwrist 27.8293
lhand -5.46228 -12.3812
lfingers 7.12502
lthumb 20.3492 16.5727
rfemur -3.63793 8.35337 24.2873
rtibia 34.7673
rfoot 9.28701 -7.27115
rtoes -9.95438
lfemur -11.0739 0.285251 -17.2784
ltibia 49.9497
lfoot 5.44476 1.11012
ltoes -13.7738
72
root 31.7527 18.9103 1.62368 -10.0792 80.0767 -372.322
lowerback 9.7176 1.03202 4.04667
upperback -1.72735 1.68555 -2.96008
thorax -7.08965 0.596593 -5.69425
lowerneck 1.14387 2.97426 -5.83666
upperneck 16.4029 4.81876 -0.700621
head 4.6375 2.17338 0.933412
rclavicle 1.24737e-014 2.3059e-014
rhumerus -9.95996 29.6316 -93.392
rradius 90.4422
rwrist -6.5691
rhand -28.731 24.9837
rfingers 7.12502
rthumb -2.09193 -4.98577
lclavicle 1.24737e-014 2.3059e-014
lhumerus -17.8471 -24.8693 76.8092
lradius 113.67
lwrist 29.4994
lhand -6.05513 -13.4896
lfingers 7.12502
lthumb 19.7794 15.524
rfemur -3.04863 8.52262 24.4545
rtibia 34.8392
rfoot 12.3175 -7.91064
rtoes -10.3252
lfemur -10.8242 0.883917 -17.2483
ltibia 50.2282
lfoot 9.00126 0.109148
ltoes -13.0503
73
root 31.933 19.088 1.63128 -9.75012 79.8824 -371.417
lowerback 9.44332 1.09405 4.13833
upperback -1.77904 1.76654 -3.04378
thorax -6.97292 0.63413 -5.83889
lowerneck 1.68219 3.04773 -6.27259
upperneck 16.6343 4.88003 -0.358405
head 4.60117 2.20496 1.10429
rclavicle 1.23743e-014 3.65764e-014
rhumerus -7.79242 30.1353 -91.4538
rradius 92.7992
rwrist -7.96534
rhand -28.9929 24.7837
rfingers 7.12502
rthumb -2.34488 -5.18317
lclavicle 1.23743e-014 3.65764e-014
lhumerus -14.7256 -25.615 74.2175
lradius 115.747
lwrist 31.1468
lhand -6.96476 -14.7057
lfingers 7.12502
lthumb 18.9047 14.3957
rfemur -2.55454 8.61066 24.6033
rtibia 35.0714
rfoot 14.8219 -8.20728
rtoes -10.5869
lfemur -10.6524 1.34572 -17.2553
ltibia 50.6424
lfoot 12.1204 -0.750036
ltoes -11.5477
74
root 32.1065 19.2538 1.63745 -9.63604 79.6664 -370.725
lowerback 9.24509 1.1563 4.28074
upperback -1.80768 1.8559 -3.12822
thorax -6.87212 0.673749 -6.01657
lowerneck 2.23835 3.12477 -6.66975
upperneck 16.7713 4.92959 -0.00522523
head 4.53318 2.23387 1.26955
rclavicle -1.36416e-014 -2.22639e-014
rhumerus -5.50043 30.3269 -89.508
rradius 94.8942
rwrist -8.96247
rhand -29.3079 24.9442
rfingers 7.12502
rthumb -2.64908 -5.01914
lclavicle -1.36416e-014 -2.22639e-014
lhumerus -11.3533 -26.0924 71.456
lradius 117.425
lwrist 32.6488
lhand -8.26411 -15.795
lfingers 7.12502
lthumb 17.6547 13.4235
rfemur -2.15362 8.66666 24.7752
rtibia 35.4011
rfoot 16.6375 -8.11774
rtoes -10.5564
lfemur -10.5725 1.73559 -17.2407
ltibia 51.1757
lfoot 14.5339 -1.50828
ltoes -9.47806
75
root 32.2731 19.4069 1.6432 -9.63792 79.4942 -370.12
lowerback 9.13581 1.20876 4.39991
upperback -1.7923 1.93362 -3.18282
thorax -6.77767 0.71007 -6.14915
lowerneck 2.7336 3.20688 -7.11886
upperneck 16.8792 4.97645 0.398051
head 4.46369 2.25942 1.45899
rclavicle -2.97556e-014 -8.74653e-015
rhumerus -3.41179 30.2474 -87.6494
rradius 97.1366
rwrist -9.47589
rhand -29.5946 25.2917
rfingers 7.12502
rthumb -2.92595 -4.66794
lclavicle -2.97556e-014 -8.74653e-015
lhumerus -8.08752 -26.2055 68.8799
lradius 118.678
lwrist 33.6974
lhand -9.78709 -17.0611
lfingers 7.12502
lthumb 16.1887 12.2829
rfemur -1.78514 8.68303 24.9591
rtibia 35.7702
rfoot 17.7041 -7.69246
rtoes -10.8531
lfemur -10.4996 2.0156 -17.2297
ltibia 51.7721
lfoot 16.2442 -2.26803
ltoes -8.11245
